<?xml version="1.0" encoding="utf-8"?>
<!DOCTYPE svg PUBLIC "-//W3C//DTD SVG 1.1//EN" "http://www.w3.org/Graphics/SVG/1.1/DTD/svg11.dtd">
<svg version="1.1" id="user_1_" xmlns="http://www.w3.org/2000/svg" xmlns:xlink="http://www.w3.org/1999/xlink" x="0px" y="0px"
	 width="200px" height="200px" viewBox="0 0 200 200" enable-background="new 0 0 200 200" xml:space="preserve">
<g id="user">
	<g>
		<path fill="#39f" d="M158.725,182.147c-3.629-0.784-6.77-1.458-8.301-2.12c-11.543-5.003-18.669-12.602-21.178-22.65
			c10.722-9.167,19.923-23.303,25.051-39.161c0.621-1.866,2.675-8.228,3.686-16.875c0.676-6.294,0.599-5.775,0.531-13.903
			c-1.476-34.633-26.314-61.899-57.137-62.341c-0.089,0-0.832-0.012-0.922-0.012C70.188,25.251,45.25,51.8,43.063,85.836
			c-0.666,6.438-0.311,12.06,0.555,17.913c1.731,8.172,2.453,10.889,5.017,18.045c5.017,13.738,12.808,25.809,22.076,34.258
			c-2.497,10.082-9.623,17.714-21.199,22.717c-1.499,0.651-4.473,1.358-7.925,2.175C30.35,183.602,12.233,187.896,0.074,200h9.49
			c10.465-7.606,23.925-10.805,33.455-13.06c3.896-0.928,6.97-1.656,8.968-2.507c17.703-7.653,23.463-19.945,25.195-28.924
			c0.211-1.082-0.178-2.187-1.021-2.915c-9.223-7.918-16.993-19.801-21.898-33.474c-0.145-0.386-2.841-7.598-4.573-16.013
			c-0.866-6.041-0.799-8.46-0.521-15.439c1.376-31.485,23.907-56.267,51.544-56.421c0.033,0,0.633,0.044,0.666,0.044
			c27.77,0.387,50.355,25.698,51.154,57.614c0.033,0.884,0.322,4.583-0.466,11.718c-0.488,6.549-3.308,14.854-3.419,15.207
			c-4.972,15.671-14.217,29.508-24.783,37.968c-0.899,0.718-1.321,1.866-1.11,2.992c1.731,8.957,7.492,21.248,25.194,28.912
			c2.099,0.896,5.34,1.602,9.457,2.485c9.246,1.991,22.232,4.799,32.497,11.812h9.771
			C187.602,188.386,169.793,184.536,158.725,182.147z"/>
	</g>
</g>
</svg>
