<svg width="100" height="100" enable-background="new 0 0 1000 1000" version="1.1" viewBox="0 0 100 100" xml:space="preserve" xmlns="http://www.w3.org/2000/svg"><path fill="#ed7f7e" d="m45.65 5.7282e-4c-4.8505 0.012534-5.1116 0.23521-6.153 1.3516-1.8816 2.0616-1.2612 5.203 1.301 6.499 0.70102 0.33326 1.2009 0.37334 5.7857 0.37334h5.0052v0.56939c0 1.0208-0.98074 5.8906-1.942 9.5424-3.8643 14.942-10.55 28.765-15.755 32.633-1.502 1.0798-2.3633 1.4522-3.5439 1.4722-1.3612 0-2.6225-0.62855-4.2246-2.1407-4.9051-4.6336-11.411-18.85-15.355-33.634-0.78062-2.8863-1.8214-7.5988-1.8214-8.1683 0-0.21617 0.86134-0.27521 4.6042-0.27521 4.1439 0 4.7051-0.039077 5.3653-0.37334 2.9031-1.4531 3.1632-5.3412 0.48051-7.1867l-0.8805-0.58933-7.6276-0.039094c-7.0674-0.057045-7.7083-0.038131-8.4491 0.29613-0.98062 0.45135-1.9817 1.5313-2.3021 2.5131-0.82041 2.3959 2.1418 16.12 5.8255 27.116 5.1449 15.374 11.551 25.604 18.258 29.217l1.3419 0.72674v4.1431c0 2.2978 0.10002 5.1841 0.22043 6.421 1.4204 15.294 10.23 26.192 23.563 29.117 1.6418 0.35328 2.5827 0.41224 6.146 0.41224 3.5837 0.02002 4.5448-0.05908 6.4663-0.43237 7.2674-1.4331 13.274-4.6725 18.358-9.8956 4.7449-4.8498 7.3674-9.8958 8.8684-17.043 0.26021-1.237 0.32052-4.1432 0.42052-17.632l0.12038-16.179 1.201-0.49042c8.549-3.5147 11.732-13.705 6.6062-21.265-1.9214-2.8272-5.2857-5.1639-8.7082-6.0276-1.7612-0.45135-5.2653-0.43242-7.0072 0.01994-5.3051 1.4141-9.4899 5.5374-10.731 10.622-0.76123 3.0434-0.3001 6.9503 1.1009 9.6794 1.6418 3.2005 4.745 5.9687 7.8879 7.0686l0.94089 0.33425v15.432c0 17.141-1.02e-4 17.102-1.3216 20.989-2.0225 5.9296-6.2662 10.759-12.072 13.705-3.1827 1.6103-6.2665 2.4739-9.9502 2.7682-11.311 0.88369-19.48-5.242-22.502-16.866-0.74082-2.8672-1.0011-5.3602-1.0011-10.073v-4.4765l0.96122-0.41224c3.7245-1.5892 7.8684-5.6143 11.352-11.054 1.6214-2.513 4.645-8.5608 6.0665-12.096 4.0643-10.112 7.0868-21.755 7.848-30.237 0.32041-3.4167-0.08057-4.6727-1.8214-5.8116l-0.86137-0.54945-7.9082-0.05903c-1.6741-0.011072-3.0379-0.019507-4.1572-0.016615zm39.45 19.08c1.0353-0.01619 2.1302 0.19421 3.0058 0.61141 1.9816 0.94274 3.1235 2.69 3.2827 4.9478 0.12041 1.8454-0.29995 3.1024-1.4816 4.3784-2.9429 3.2205-8.1083 2.5329-10.03-1.3151-0.48062-0.94274-0.56003-1.3549-0.56003-2.69 0-1.316 0.09988-1.7275 0.5407-2.5721 0.68062-1.276 2.2623-2.67 3.5031-3.0823 0.51812-0.17714 1.1179-0.26843 1.7391-0.27815z" stroke-width=".010106"/></svg>
